<svg width="408" height="16" viewBox="0 0 408 16" fill="none" xmlns="http://www.w3.org/2000/svg">
<path d="M1.21955 12.6141C1.02226 12.7895 0.978424 13.0306 0.978424 13.2279V14.872C0.978424 15.3761 1.32916 15.7269 1.83334 15.7269H15.2488C17.9888 15.7269 19.5014 14.2363 19.5014 11.4962V1.23734C19.5014 1.04005 19.4137 0.82084 19.2602 0.62355C19.0629 0.44818 18.8218 0.382416 18.6245 0.382416H16.6736C16.4982 0.382416 16.2571 0.42626 16.0598 0.62355C15.8845 0.82084 15.8187 1.06197 15.8187 1.23734V11.2989C15.8187 12.1538 15.5776 12.373 14.7227 12.373H1.83332C1.65795 12.373 1.41683 12.4169 1.21954 12.6142L1.21955 12.6141Z" fill="#CF0F0F"/>
<path d="M26.6987 14.8939C26.6987 15.0692 26.7644 15.3104 26.9398 15.4857C26.9617 15.5515 27.0056 15.5515 27.0275 15.5734C27.1809 15.683 27.3563 15.7269 27.5536 15.7269H43.5337C43.7091 15.7269 43.9283 15.7049 44.1037 15.5515L44.1694 15.4857C44.3448 15.2884 44.3886 15.0473 44.3886 14.8719V13.2279C44.3886 13.0964 44.3886 13.0087 44.3667 12.9868C44.301 12.5703 43.9064 12.373 43.5337 12.373H27.5317C27.2467 12.373 27.0933 12.4607 26.896 12.6579C26.7864 12.8114 26.7206 12.9868 26.7206 13.1841C26.6987 13.206 26.6987 13.2937 26.6987 13.4471L26.6987 14.8939ZM26.7206 1.17156C26.7206 1.25924 26.6987 1.34693 26.6987 1.43461V2.90328C26.6987 3.07865 26.7425 3.31977 26.9398 3.51706C27.0056 3.53898 26.9836 3.56091 27.0494 3.58283C27.2028 3.73627 27.4001 3.73627 27.5536 3.73627H43.446C43.6214 3.73627 43.8625 3.69242 44.0598 3.51705C44.2571 3.31976 44.3009 3.07864 44.3009 2.88135V1.23731C44.3009 1.21539 44.279 1.14962 44.2571 0.996175C44.1914 0.711205 44.0817 0.623532 43.8406 0.470082C43.731 0.404322 43.5995 0.38239 43.446 0.38239H27.6632C27.4878 0.36047 27.2248 0.404316 27.0275 0.579686L26.9179 0.667363C26.7644 0.820803 26.7425 1.01809 26.7206 1.17153L26.7206 1.17156ZM26.6987 9.01914C26.7206 9.21643 26.8083 9.36988 26.9398 9.47948C26.9617 9.54524 27.0056 9.54524 27.0275 9.56716C27.2029 9.7206 27.4001 9.7206 27.5536 9.7206H27.8166H43.2268C43.7529 9.7206 44.0817 9.39178 44.0817 8.86568V7.24355C44.0817 7.11203 44.0817 7.02435 44.0598 7.00243C44.0379 6.84899 43.9064 6.60785 43.7529 6.54209C43.5995 6.38865 43.4022 6.38866 43.2488 6.38866H27.707C27.5097 6.36674 27.2467 6.38866 27.0494 6.56403L26.9398 6.65171C26.8083 6.80515 26.7425 6.98052 26.7425 7.13396L26.6987 7.39701L26.6987 9.01914Z" fill="#CF0F0F"/>
<path d="M56.3865 0.228958C53.3834 0.228958 51.5859 1.5442 51.5859 4.67885C51.5859 7.74774 53.3834 9.12874 56.3427 9.30411L65.5713 9.83022C66.2508 9.85214 66.5577 10.0275 66.733 10.2029C66.9084 10.4002 66.9961 10.729 66.9961 11.1893C66.9961 12.1538 66.5796 12.373 65.637 12.373C63.708 12.3949 61.9324 12.3949 60.1788 12.3949C57.2633 12.3949 53.9533 12.4168 52.4846 12.4168H51.6736C51.6078 12.4388 51.5859 12.4607 51.5859 12.5264C51.6516 14.302 53.0984 15.7269 54.874 15.7269H65.8124C68.8593 15.7269 70.613 14.4116 70.613 11.255C70.613 8.20807 68.7717 6.80515 65.8562 6.6517L56.6276 6.1256C55.9481 6.05984 55.6412 5.92831 55.4658 5.73103C55.2685 5.53374 55.1809 5.22687 55.1809 4.76653C55.1809 4.26236 55.2905 4.02122 55.4439 3.86777C55.5974 3.71433 55.9262 3.58279 56.5399 3.58279H70.5253C70.5911 3.58279 70.613 3.56088 70.613 3.49512V3.47321C70.613 1.6538 69.1882 0.228943 67.3687 0.228943L56.3865 0.228958Z" fill="#CF0F0F"/>
<path d="M82.6109 0.228958C79.6078 0.228958 77.8103 1.5442 77.8103 4.67885C77.8103 7.74774 79.6078 9.12874 82.5671 9.30411L91.7957 9.83022C92.4752 9.85214 92.7821 10.0275 92.9575 10.2029C93.1328 10.4002 93.2205 10.729 93.2205 11.1893C93.2205 12.1538 92.804 12.373 91.8614 12.373C89.9324 12.3949 88.1568 12.3949 86.4032 12.3949C83.4877 12.3949 80.1777 12.4168 78.709 12.4168H77.898C77.8322 12.4388 77.8103 12.4607 77.8103 12.5264C77.8761 14.302 79.3228 15.7269 81.0984 15.7269H92.0368C95.0838 15.7269 96.8374 14.4116 96.8374 11.255C96.8374 8.20807 94.9961 6.80515 92.0806 6.6517L82.8521 6.1256C82.1725 6.05984 81.8656 5.92831 81.6903 5.73103C81.493 5.53374 81.4053 5.22687 81.4053 4.76653C81.4053 4.26236 81.5149 4.02122 81.6683 3.86777C81.8218 3.71433 82.1506 3.58279 82.7644 3.58279H96.7497C96.8155 3.58279 96.8374 3.56088 96.8374 3.49512V3.47321C96.8374 1.6538 95.4126 0.228943 93.5932 0.228943L82.6109 0.228958Z" fill="#CF0F0F"/>
<path d="M104.89 0.382416C104.385 0.382416 104.035 0.73314 104.035 1.23732V14.872C104.035 15.3761 104.385 15.7269 104.89 15.7269H106.819C107.016 15.7269 107.257 15.683 107.432 15.4857C107.63 15.2884 107.674 15.0473 107.674 14.872V1.23732C107.674 1.06195 107.63 0.820825 107.432 0.623535C107.257 0.426245 107.016 0.382416 106.819 0.382416H104.89Z" fill="#CF0F0F"/>
<path d="M119.189 0.31665C116.361 0.31665 114.871 1.71957 114.871 4.54733V11.5839C114.871 14.4116 116.449 15.8145 119.189 15.8145H130.084C132.363 15.8145 133.876 14.8281 134.227 12.5484C134.227 12.4826 134.183 12.4607 134.117 12.4607H119.737C119.189 12.4607 118.904 12.3292 118.751 12.1757C118.597 12.0661 118.51 11.7811 118.51 11.3647V4.74461C118.51 4.32812 118.597 4.04316 118.751 3.93356C118.904 3.78012 119.189 3.67052 119.737 3.67052H134.117C134.227 3.67052 134.249 3.62667 134.205 3.56091C133.854 1.28116 132.363 0.31665 130.084 0.31665H119.189Z" fill="#CF0F0F"/>
<path d="M140.372 14.9377C140.372 15.2227 140.481 15.4419 140.723 15.6173C140.898 15.683 141.051 15.7269 141.183 15.7269H143.441C143.528 15.7269 143.682 15.683 143.901 15.6173C144.142 15.4638 144.274 15.2884 144.361 15.135L145.567 13.2937L147.671 9.98366L151.179 4.56926C151.244 4.5035 151.288 4.5035 151.354 4.56926L156.988 13.2937L157.733 14.4116L158.193 15.135C158.259 15.2446 158.391 15.4638 158.654 15.6173C158.763 15.683 158.917 15.7269 159.092 15.7269H161.35C161.481 15.7269 161.635 15.683 161.81 15.6173C162.051 15.4419 162.161 15.2227 162.161 14.9377C162.139 14.7843 162.095 14.6308 162.007 14.4993L153.239 0.974274C153.042 0.623544 152.735 0.382416 152.319 0.382416H150.214C150.039 0.382416 149.885 0.426251 149.754 0.513931C149.513 0.667371 149.381 0.842747 149.315 0.952347L140.525 14.4774C140.459 14.6308 140.372 14.7624 140.372 14.9377V14.9377Z" fill="#CF0F0F"/>
<path d="M172.581 0.31665C169.753 0.31665 168.262 1.71957 168.262 4.54733V11.5839C168.262 14.4116 169.84 15.8145 172.581 15.8145H183.475C185.755 15.8145 187.267 14.8281 187.618 12.5484C187.618 12.4826 187.574 12.4607 187.509 12.4607H173.129C172.581 12.4607 172.296 12.3292 172.142 12.1757C171.989 12.0661 171.901 11.7811 171.901 11.3647V4.74461C171.901 4.32812 171.989 4.04316 172.142 3.93356C172.296 3.78012 172.581 3.67052 173.129 3.67052H187.509C187.618 3.67052 187.64 3.62667 187.596 3.56091C187.245 1.28116 185.755 0.31665 183.475 0.31665H172.581Z" fill="#CF0F0F"/>
<path d="M193.763 14.9377C193.763 15.2227 193.873 15.4419 194.114 15.6173C194.289 15.683 194.443 15.7269 194.574 15.7269H196.832C196.92 15.7269 197.073 15.683 197.292 15.6173C197.534 15.4638 197.665 15.2884 197.753 15.135L198.958 13.2937L201.063 9.98366L204.57 4.56926C204.636 4.5035 204.68 4.5035 204.745 4.56926L210.379 13.2937L211.124 14.4116L211.585 15.135C211.65 15.2446 211.782 15.4638 212.045 15.6173C212.155 15.683 212.308 15.7269 212.483 15.7269H214.741C214.873 15.7269 215.026 15.683 215.202 15.6173C215.443 15.4419 215.552 15.2227 215.552 14.9377C215.53 14.7843 215.487 14.6308 215.399 14.4993L206.631 0.974274C206.433 0.623544 206.126 0.382416 205.71 0.382416H203.606C203.43 0.382416 203.277 0.426251 203.145 0.513931C202.904 0.667371 202.773 0.842747 202.707 0.952347L193.917 14.4774C193.851 14.6308 193.763 14.7624 193.763 14.9377V14.9377Z" fill="#CF0F0F"/>
<path d="M226.454 0.228958C223.451 0.228958 221.654 1.5442 221.654 4.67885C221.654 7.74774 223.451 9.12874 226.41 9.30411L235.639 9.83022C236.318 9.85214 236.625 10.0275 236.801 10.2029C236.976 10.4002 237.064 10.729 237.064 11.1893C237.064 12.1538 236.647 12.373 235.705 12.373C233.776 12.3949 232 12.3949 230.246 12.3949C227.331 12.3949 224.021 12.4168 222.552 12.4168H221.741C221.675 12.4388 221.654 12.4607 221.654 12.5264C221.719 14.302 223.166 15.7269 224.942 15.7269H235.88C238.927 15.7269 240.681 14.4116 240.681 11.255C240.681 8.20807 238.839 6.80515 235.924 6.6517L226.695 6.1256C226.016 6.05984 225.709 5.92831 225.534 5.73103C225.336 5.53374 225.249 5.22687 225.249 4.76653C225.249 4.26236 225.358 4.02122 225.512 3.86777C225.665 3.71433 225.994 3.58279 226.608 3.58279H240.593C240.659 3.58279 240.681 3.56088 240.681 3.49512V3.47321C240.681 1.6538 239.256 0.228943 237.436 0.228943L226.454 0.228958Z" fill="#CF0F0F"/>
<path d="M247.637 0.382416C247.133 0.382416 246.782 0.73314 246.782 1.23732V2.88136C246.782 3.07865 246.826 3.31978 247.023 3.51707C247.22 3.69244 247.461 3.73628 247.637 3.73628H254.498V14.872C254.498 15.0473 254.542 15.2885 254.739 15.4857C254.915 15.683 255.156 15.7269 255.353 15.7269H257.238C257.435 15.7269 257.676 15.683 257.852 15.4857C258.049 15.2885 258.093 15.0473 258.093 14.872V3.73628H264.932C265.436 3.73628 265.809 3.40746 265.809 2.88136V1.23732C265.809 1.04003 265.721 0.820825 265.568 0.623535C265.371 0.448165 265.13 0.382416 264.932 0.382416H247.637Z" fill="#CF0F0F"/>
<path d="M272.765 0.382416C272.261 0.382416 271.91 0.73314 271.91 1.23732V3.64859C271.91 3.71435 271.932 3.73627 271.998 3.73627H285.348C285.896 3.73627 286.137 3.82395 286.246 3.9774C286.356 4.087 286.466 4.30621 286.466 4.83231V7.41895C286.466 8.29578 286.224 8.51498 285.348 8.51498H277.412C277.325 8.51498 277.281 8.60267 277.347 8.66843C278.64 9.89599 282.103 13.2498 284.624 15.705C284.624 15.7269 284.646 15.7269 284.69 15.7269H289.666C289.732 15.7269 289.798 15.6392 289.732 15.5734C288.965 14.8062 286.882 12.8333 285.961 11.9565C285.896 11.8908 285.94 11.8031 286.027 11.8031C288.767 11.5181 290.126 10.5098 290.126 7.66008V4.61311C290.126 1.87303 288.636 0.382431 285.896 0.382431L272.765 0.382416Z" fill="#A00000"/>
<path d="M297.324 11.5839C297.324 14.4116 298.902 15.8145 301.642 15.8145H312.427C315.167 15.8145 316.723 14.3239 316.723 11.5839V4.54733C316.723 1.71957 315.167 0.31665 312.427 0.31665H301.642C298.814 0.31665 297.324 1.71957 297.324 4.54733V11.5839ZM300.962 4.74461C300.962 4.32812 301.05 4.04316 301.204 3.93356C301.357 3.78012 301.642 3.67052 302.19 3.67052H311.879C312.734 3.67052 313.085 3.86779 313.085 4.74461V11.3647C313.085 11.8688 312.975 12.0442 312.865 12.1976C312.712 12.3511 312.427 12.4607 311.879 12.4607H302.19C301.642 12.4607 301.357 12.3292 301.204 12.1757C301.05 12.0661 300.962 11.7811 300.962 11.3647V4.74461Z" fill="#A00000"/>
<path d="M324.754 12.3292C324.249 12.3292 323.921 12.658 323.921 13.1621V14.8939C323.921 15.0692 323.965 15.3104 324.162 15.4857C324.337 15.683 324.578 15.7269 324.754 15.7269H326.485C326.661 15.7269 326.902 15.683 327.077 15.4857C327.275 15.3104 327.318 15.0692 327.318 14.8939V13.1621C327.318 12.658 326.99 12.3292 326.485 12.3292H324.754Z" fill="#A00000"/>
<path d="M334.516 3.64857C334.516 3.71433 334.538 3.73627 334.603 3.73627H349.531C350.057 3.73627 350.299 3.82394 350.408 3.97739C350.518 4.08699 350.627 4.30621 350.627 4.83231V11.2989C350.627 12.1538 350.386 12.373 349.531 12.373H334.603C334.538 12.373 334.516 12.3949 334.516 12.4607V14.8719C334.516 15.3761 334.866 15.7269 335.371 15.7269H350.035C352.841 15.7269 354.244 14.3239 354.244 11.4962V4.6131C354.244 1.78534 352.841 0.382416 350.035 0.382416H335.371C335.195 0.382416 335.042 0.426258 334.888 0.535858L334.713 0.689301C334.647 0.755061 334.603 0.842738 334.581 0.908508C334.56 0.930428 334.56 0.952345 334.56 0.996185C334.538 1.14963 334.516 1.2154 334.516 1.23732L334.516 3.64857Z" fill="#A00000"/>
<path d="M361.442 14.8939C361.442 15.0692 361.507 15.3104 361.683 15.4857C361.705 15.5515 361.748 15.5515 361.77 15.5734C361.924 15.683 362.099 15.7269 362.296 15.7269H378.277C378.452 15.7269 378.671 15.7049 378.847 15.5515L378.912 15.4857C379.088 15.2884 379.132 15.0473 379.132 14.8719V13.2279C379.132 13.0964 379.132 13.0087 379.11 12.9868C379.044 12.5703 378.649 12.373 378.277 12.373H362.275C361.99 12.373 361.836 12.4607 361.639 12.6579C361.529 12.8114 361.463 12.9868 361.463 13.1841C361.442 13.206 361.442 13.2937 361.442 13.4471V14.8939ZM361.463 1.17156C361.463 1.25924 361.442 1.34693 361.442 1.43461V2.90328C361.442 3.07865 361.485 3.31977 361.683 3.51706C361.748 3.53898 361.727 3.56091 361.792 3.58283C361.946 3.73627 362.143 3.73627 362.296 3.73627H378.189C378.364 3.73627 378.605 3.69242 378.803 3.51705C379 3.31976 379.044 3.07864 379.044 2.88135V1.23731C379.044 1.21539 379.022 1.14962 379 0.996175C378.934 0.711205 378.825 0.623532 378.583 0.470082C378.474 0.404322 378.342 0.38239 378.189 0.38239H362.406C362.231 0.36047 361.968 0.404316 361.77 0.579686L361.661 0.667363C361.507 0.820803 361.485 1.01809 361.463 1.17153L361.463 1.17156ZM361.442 9.01914C361.463 9.21643 361.551 9.36988 361.683 9.47948C361.705 9.54524 361.748 9.54524 361.77 9.56716C361.946 9.7206 362.143 9.7206 362.296 9.7206H362.559H377.97C378.496 9.7206 378.825 9.39178 378.825 8.86568V7.24355C378.825 7.11203 378.825 7.02435 378.803 7.00243C378.781 6.84899 378.649 6.60785 378.496 6.54209C378.342 6.38865 378.145 6.38866 377.992 6.38866H362.45C362.253 6.36674 361.99 6.38866 361.792 6.56403L361.683 6.65171C361.551 6.80515 361.485 6.98052 361.485 7.13396L361.442 7.39701V9.01914Z" fill="#A00000"/>
<path d="M385.32 0.798904C385.255 0.908504 385.233 1.01811 385.233 1.17155C385.233 1.34692 385.32 1.47844 385.386 1.63188L394.176 15.1569C394.417 15.5077 394.659 15.7269 395.075 15.7269H397.18C397.596 15.7269 397.925 15.4857 398.1 15.135L402.484 8.38344L406.868 1.63188C406.934 1.47844 407 1.34691 407.022 1.17155C407.022 1.01811 407 0.908504 406.934 0.798904C406.868 0.667384 406.781 0.579691 406.671 0.513931C406.518 0.426251 406.364 0.382416 406.211 0.382416H403.953C403.515 0.382416 403.295 0.645455 403.054 0.996185C403.054 0.974265 401.322 3.64859 399.591 6.32291L396.127 11.6716L389.222 0.974274C389.135 0.864674 389.003 0.645475 388.762 0.492035C388.543 0.426275 388.389 0.382431 388.302 0.382431H386.044C385.89 0.382431 385.737 0.426267 385.583 0.513947C385.474 0.579707 385.386 0.66739 385.32 0.79892V0.798904Z" fill="#A00000"/>
</svg>
